#!OML:ASF E:/inclinewalkrobotboard/Project1/Captureday1/Session1/subject1.ASF
:FULLY-SPECIFIED
:DEGREES
213
root 0 0 0 1.530526845317632 -3.840299891434122 1.8636696721776818
lowerback 12.240994914948992 0.9513351032833086 0.012915865838498908
upperback -4.449477788166949 1.2027308801202135 -0.6306746566193769
thorax -11.740241357407498 0.5561717031252899 -0.9285260676347009
lowerneck -6.059944708734145 1.8684409241536863 4.781459404821092
upperneck 18.121500443883747 3.5028955713256664 -8.59596450138091
head 6.650780103206612 1.3091415262567323 -3.2843434412190238
rclavicle 2.1376632459513808E-15 -6.827351864837611E-16
rhumerus 21.03114273526166 15.546300567869524 -47.75218766545413
rradius 73.22849262664056
rwrist 26.753768226538355
rhand -34.61480277956675 -57.19453460069039
rfingers 7.1250200000000286
rthumb -7.716851456879617 -87.15177275361239
lclavicle -7.41918258749447E-16 -7.217460190503707E-16
lhumerus 23.176388690355346 -14.458910319173409 44.742802428379825
lradius 71.83361408677771
lwrist -22.254153510040645
lhand -45.75696082154431 -71.96487753808796
lfingers 7.1250200000000286
lthumb -18.51090073280701 -42.7478990130608
rfemur -25.093505274279096 -2.0170865493995764 17.674325057385172
rtibia 51.07080211523379
rfoot -33.962920498566035 -18.273649876367344
rtoes -21.676048709576463
lfemur -27.935476825776238 2.2195368262014945 -17.19055094976028
ltibia 51.35445131110387
lfoot -35.19854206951372 -0.567091113141029
ltoes -22.06756827800922
214
root 0 0 0 1.5341161780536914 -3.8583970846721583 1.8555783289854335
lowerback 12.242196167345245 0.9569380618207157 0.02209098148096611
upperback -4.448232216771883 1.2110850335908567 -0.6306822164330809
thorax -11.73925150351595 0.5600959462841983 -0.9344981201447538
lowerneck -6.062463964219735 1.8673344067757773 4.776976010800744
upperneck 18.112466619046458 3.5009675031193996 -8.589736421408002
head 6.648182514896956 1.308540655718808 -3.2816813767772626
rclavicle 2.1525633599545973E-15 -7.084596284450624E-16
rhumerus 21.065691105005058 15.596723515988524 -47.787616709989294
rradius 73.25806087803993
rwrist 26.716010760612413
rhand -34.61430994237483 -57.183864553182694
rfingers 7.1250200000000286
rthumb -7.7161609770270605 -87.14362289356274
lclavicle -7.427313639554113E-16 -7.319795869146962E-16
lhumerus 23.172994793906696 -14.457115475616055 44.7442340919124
lradius 71.83167789163579
lwrist -22.253802632181923
lhand -45.75510695530736 -71.95993298612734
lfingers 7.1250200000000286
lthumb -18.509038085697522 -42.74315529852902
rfemur -25.079037619289032 -1.9905002372320197 17.712515610791264
rtibia 50.90751648167679
rfoot -34.0928468351286 -18.303395279131884
rtoes -21.702004397692285
lfemur -28.049929737781845 2.20916558151143 -17.196373984146927
ltibia 51.19809666862717
lfoot -35.388902031103044 -0.40349771927166644
ltoes -21.977601831774635
215
root 0 0 0 1.5365458872289137 -3.862998074776449 1.8534022993913526
lowerback 12.242418801677934 0.9580401968141274 0.024084215008080112
upperback -4.4476125838225125 1.212808381793775 -0.630416776300117
thorax -11.738578191650195 0.5608906430874229 -0.9355556634718449
lowerneck -6.063937345356931 1.8669713003295743 4.775378915326052
upperneck 18.108573304160608 3.5004331199214453 -8.587545503181966
head 6.64717601968543 1.308385148640515 -3.2807412463945838
rclavicle 2.1634870879653973E-15 -7.055083002778988E-16
rhumerus 21.083476990859808 15.620914724357435 -47.803516766605014
rradius 73.27215462145583
rwrist 26.698571691936728
rhand -34.614612216656965 -57.18219386389458
rfingers 7.1250200000000286
rthumb -7.716944428035191 -87.14220921128371
lclavicle -7.378468549316962E-16 -7.491553362368094E-16
lhumerus 23.1782701372208 -14.464543959340691 44.74629181661168
lradius 71.83637787822563
lwrist -22.24969607171483
lhand -45.75606269363562 -71.95587138834199
lfingers 7.1250200000000286
lthumb -18.510136998028948 -42.739032461505516
rfemur -25.059637624749953 -1.9689716117476426 17.746155340405075
rtibia 50.764823597206764
rfoot -34.19982362492659 -18.31399824884157
rtoes -21.75738860766454
lfemur -28.08810946253953 2.18397681947087 -17.193409280313315
ltibia 51.03203806495276
lfoot -35.53926502052783 -0.3005272049475396
ltoes -21.998454350412317
216
root 0 0 0 1.538712694790433 -3.866181676981199 1.852321793198541
lowerback 12.241371203673236 0.9592546410670434 0.024838219065698885
upperback -4.447096055214963 1.2144620040557732 -0.6305024642559253
thorax -11.73726393411234 0.5616859711284202 -0.9362627343612726
lowerneck -6.0656531747379026 1.8664718145083337 4.774169473019358
upperneck 18.107133532487918 3.4996210731023263 -8.585692227490537
head 6.646993939063116 1.308075906344992 -3.2800050262002713
rclavicle 2.1699599724746494E-15 -7.011590849936101E-16
rhumerus 21.09434609735154 15.636311740210632 -47.81431258220745
rradius 73.28123541855828
rwrist 26.686948747483175
rhand -34.6147523309241 -57.17905002820961
rfingers 7.1250200000000286
rthumb -7.717136430649184 -87.13994646386496
lclavicle -7.355156772718509E-16 -7.476735710717273E-16
lhumerus 23.17875407372634 -14.466973348613926 44.7476554697164
lradius 71.83758050810216
lwrist -22.24751500096967
lhand -45.755604286096386 -71.95147972190637
lfingers 7.1250200000000286
lthumb -18.509720189040586 -42.73461631653559
rfemur -25.03202482311813 -1.9467400911332087 17.77736918836153
rtibia 50.62701469509
rfoot -34.2912443758409 -18.31978511017111
rtoes -21.813937368196687
lfemur -28.100086877642227 2.1591901560846223 -17.18086579964699
ltibia 50.887000165879165
lfoot -35.62300053572826 -0.23570563744466133
ltoes -22.039322459666728
217
root 0 0 0 1.540328312910444 -3.8681848062510236 1.8514294552008113
lowerback 12.240254334843932 0.9602141229436728 0.02539263896739824
upperback -4.4467041749185485 1.2157500206524234 -0.630539643927292
thorax -11.736058211335596 0.5623064344865618 -0.9367628867514293
lowerneck -6.067137442871595 1.8661304256517985 4.773461041195439
upperneck 18.107065685117497 3.4990557728564946 -8.584630951523028
head 6.647212137801495 1.3078354547975142 -3.2795935487702677
rclavicle 2.1719792541911407E-15 -6.993235311808076E-16
rhumerus 21.098724832503713 15.642365402605433 -47.81843552872233
rradius 73.28496603872244
rwrist 26.68254956187538
rhand -34.614937235898104 -57.178004185842745
rfingers 7.1250200000000286
rthumb -7.7173259380595844 -87.13936050277285
lclavicle -7.347062332478669E-16 -7.464694265280228E-16
lhumerus 23.177665542292317 -14.46628110705197 44.74806774796668
lradius 71.83667102571115
lwrist -22.247192540265935
lhand -45.754963038807006 -71.94933725246707
lfingers 7.1250200000000286
lthumb -18.509091682126147 -42.73247144419794
rfemur -25.00093092356244 -1.9308625331525144 17.80106013006281
rtibia 50.53000553884797
rfoot -34.352941117296524 -18.317813207782194
rtoes -21.864318599527255
lfemur -28.100758336164443 2.1388295932330204 -17.163410787966228
ltibia 50.79164632631622
lfoot -35.65028975153542 -0.20907227585165078
ltoes -22.085057108038047
218
root 0 0 0 1.5699364963324278 -3.712376173396036 1.9934559420274036
lowerback 12.11783418432816 0.9411485050940314 -0.14193544461559726
upperback -4.432905868258808 1.170388039847183 -0.6587917524493888
thorax -11.646545935387753 0.5425477877309448 -0.8699359031015514
lowerneck -6.137559591163559 1.8109278702497231 4.741952097456237
upperneck 18.259346340834707 3.4111178141075547 -8.515245170895872
head 6.7119851499309915 1.2689531836044772 -3.2619590239680463
rclavicle 2.0331611116887223E-15 -7.133190321095712E-16
rhumerus 20.886782663169328 15.553097314982052 -48.059972191524025
rradius 73.08774684292491
rwrist 26.500052685338957
rhand -34.49097078618513 -56.765753385803954
rfingers 7.125020000000026
rthumb -7.600727188785889 -86.74210793982776
lclavicle -4.207811095059458E-16 -7.703309454338138E-16
lhumerus 22.7549571443326 -14.305528483170015 44.9661365709596
lradius 71.53383655590956
lwrist -22.108667060355188
lhand -45.516281868237044 -71.13856004427721
lfingers 7.125020000000025
lthumb -18.278039415317853 -41.89847229536443
rfemur -25.183045890874716 -1.5905445865050405 17.887320975201998
rtibia 48.98536818489866
rfoot -34.11691353031479 -18.397327050591535
rtoes -21.811476209553277
lfemur -27.173475240422068 2.0117548575759407 -17.238304508650717
ltibia 49.44723125030645
lfoot -35.439477584351685 0.08758841036792919
ltoes -22.081223617849844
219
root 0 0 0 1.5782776059418908 -3.6587068820234245 2.0130700374399395
lowerback 12.080277779764598 0.9341910205327694 -0.17405895771481106
upperback -4.419861153553465 1.1574608272187183 -0.6567850656737649
thorax -11.606650441559973 0.5363215172619883 -0.8488227077598598
lowerneck -6.184842857501523 1.7877906501572343 4.721657744231177
upperneck 18.312674334568158 3.3744291057720988 -8.477995627637771
head 6.738566894406944 1.2535436968551372 -3.251448450305423
rclavicle 2.5095791798188466E-15 3.1531159689629786E-16
rhumerus 20.477802554492193 15.055536236297657 -47.85150379510483
rradius 72.71166607710025
rwrist 26.752822319412978
rhand -34.44716884907842 -56.61499864855981
rfingers 7.125020000000023
rthumb -7.553040323713306 -86.57014048752956
lclavicle -2.547752950402897E-16 -1.319984901452544E-16
lhumerus 22.353318096772888 -14.0029176684852 45.045813557429376
lradius 71.20028720633994
lwrist -22.125626579264292
lhand -45.396844139331314 -70.80287534541947
lfingers 7.125020000000022
lthumb -18.163607669905566 -41.59654870974073
rfemur -24.904058378159053 -1.5916399066591391 17.889368500095568
rtibia 49.24678176454066
rfoot -33.671458731136006 -18.05627486017218
rtoes -21.77080689997253
lfemur -26.481652903150824 1.899208791286331 -17.262110352307204
ltibia 48.69295609307526
lfoot -35.37697501063395 -0.13208640943328032
ltoes -22.88504356051243
220
root 0 0 0 1.5395178350942311 -3.7717095868372215 1.9183734765097316
lowerback 12.195669780264685 0.9432743790954738 -0.05104799954724881
upperback -4.448929929814173 1.1836420254430915 -0.6414574387541822
thorax -11.712199994536437 0.547989784080487 -0.9023880091672452
lowerneck -6.08124002285946 1.8584151191555385 4.786021259691429
upperneck 18.1997975695052 3.4867135291195677 -8.59541641135096
head 6.680736604309421 1.3010233095759047 -3.2872247650418576
rclavicle 2.1658569683729738E-15 -4.335288948874722E-16
rhumerus 20.863715604155693 15.347928283655074 -47.67419300988709
rradius 73.08428954048112
rwrist 26.85375184649528
rhand -34.59453562160995 -57.14108918579165
rfingers 7.1250200000000286
rthumb -7.697430455461715 -87.09718267105902
lclavicle -6.260787673761824E-16 -4.908750807830295E-16
lhumerus 23.044389105163276 -14.350678908759708 44.76689269174686
lradius 71.71792616274365
lwrist -22.263754088479338
lhand -45.70230044403021 -71.82998313427373
lfingers 7.125020000000028
lthumb -18.457727501931057 -42.61341825061051
rfemur -24.912280402876593 -1.9757359832402255 17.64881422891502
rtibia 50.969882937277724
rfoot -33.6963563353272 -18.146382744709776
rtoes -21.929112973117608
lfemur -27.3406937804531 2.0680164323479824 -17.115821201196376
ltibia 50.69804783875745
lfoot -34.97543317694224 -0.7789247438124076
ltoes -22.790027975155326
